# xmcd CD database file
#
# Track frame offsets:
#	150
#	16350
#	38850
#
# Disc length: 733 seconds
#
# Revision: 1
# Processed by: cddbd v1.5.1PL2 Copyright (c) Steve Scherf et al.
# Submitted via: CDex 1.51
#
DISCID=1b02db03
DTITLE=シュガービート - 真夏の出来事
DYEAR=1992
DGENRE=EBM
TTITLE0=真夏の出来事
TTITLE1=トパーズ色のDUNE
TTITLE2=真夏の出来事（オリジナル・カラオケ）
EXTD=YEAR: 1992
EXTT0=
EXTT1=
EXTT2=
PLAYORDER=
